<?xml version="1.0" standalone="no"?>
<!DOCTYPE svg PUBLIC "-//W3C//DTD SVG 20010904//EN"
 "http://www.w3.org/TR/2001/REC-SVG-20010904/DTD/svg10.dtd">
<svg version="1.0" xmlns="http://www.w3.org/2000/svg"
 width="69.000000pt" height="64.000000pt" viewBox="0 0 69.000000 64.000000"
 preserveAspectRatio="xMidYMid meet">

<g transform="translate(0.000000,64.000000) scale(0.100000,-0.100000)"
fill="#000000" stroke="none">
<path d="M55 606 c-36 -47 -58 -120 -52 -167 7 -51 52 -145 74 -153 24 -10 40
11 25 32 -62 89 -69 176 -18 252 43 66 18 98 -29 36z"/>
<path d="M557 633 c-12 -12 -7 -32 17 -68 46 -68 43 -153 -10 -230 -18 -27
-22 -41 -14 -49 16 -16 41 3 68 52 32 57 39 136 18 199 -16 49 -66 110 -79 96z"/>
<path d="M135 530 c-24 -47 -20 -123 9 -157 20 -23 27 -26 37 -15 11 10 10 18
-4 41 -21 36 -22 81 -2 107 21 28 19 54 -5 54 -11 0 -26 -12 -35 -30z"/>
<path d="M455 551 c-3 -6 4 -25 15 -43 25 -41 25 -54 -1 -102 -21 -40 -15 -64
14 -53 20 8 47 69 47 109 0 58 -54 122 -75 89z"/>
<path d="M296 494 c-19 -18 -20 -28 -5 -52 9 -15 -3 -45 -65 -170 -42 -83 -76
-157 -76 -164 0 -11 79 -60 161 -102 12 -6 41 5 104 40 48 27 89 54 92 60 2 6
-33 80 -77 165 -67 126 -80 157 -71 171 6 10 11 22 11 27 0 14 -29 41 -45 41
-7 0 -21 -7 -29 -16z m54 -164 l20 -39 -21 -12 c-16 -8 -28 -8 -46 0 l-24 11
21 40 c11 22 22 40 25 40 3 0 14 -18 25 -40z m-49 -96 c28 -14 33 -14 54 0 33
21 40 20 53 -8 10 -23 8 -27 -34 -50 l-45 -25 -45 21 c-47 23 -50 28 -34 59
13 23 13 23 51 3z m-26 -101 l56 -28 51 29 c49 28 52 28 65 11 7 -11 13 -21
13 -24 0 -3 -30 -21 -67 -40 l-66 -35 -64 34 c-65 35 -67 37 -57 64 8 20 4 21
69 -11z"/>
</g>
</svg>
